<svg width="120" height="100" viewBox="0 0 120 100" fill="none" xmlns="http://www.w3.org/2000/svg">
<g id="HabitTracker">
<path id="text" d="M19.1838 55V44.682H20.4578V49.008H25.5678V44.682H26.8418V55H25.5678V50.142H20.4578V55H19.1838ZM29.988 55L28.532 53.53V51.864L29.988 50.394H33.712V49.484L32.956 48.714H29.484V47.678H33.488L34.944 49.148V55H33.712V53.866L32.578 55H29.988ZM30.534 54.02H32.27L33.712 52.592V51.36L30.534 51.374L29.764 52.13V53.25L30.534 54.02ZM37.1744 55V44.682H38.4064V48.84L39.5264 47.678H42.2284L43.6844 49.148V53.53L42.2284 55H39.5264L38.4064 53.852V55H37.1744ZM39.8484 54.02H41.6964L42.4524 53.25V49.428L41.6964 48.658H39.8484L38.4064 50.128V52.564L39.8484 54.02ZM45.815 46.88V45.228H47.047V46.88H45.815ZM45.815 55V47.678H47.047V55H45.815ZM50.7007 55L49.4127 53.726V48.658H48.6427V47.678H49.4407L49.7487 45.802H50.6447V47.678H52.1987V48.658H50.6447V53.292L51.3027 53.978H52.5207V55H50.7007ZM56.1181 55V45.858H53.0521V44.682H60.4581V45.858H57.3921V55H56.1181ZM60.7037 55V47.678H61.9357V48.994L63.2097 47.678H65.0857V48.91H63.2657L61.9357 50.282V55H60.7037ZM66.8747 55L65.4187 53.53V51.864L66.8747 50.394H70.5987V49.484L69.8427 48.714H66.3707V47.678H70.3747L71.8307 49.148V55H70.5987V53.866L69.4647 55H66.8747ZM67.4207 54.02H69.1567L70.5987 52.592V51.36L67.4207 51.374L66.6507 52.13V53.25L67.4207 54.02ZM75.3631 55L73.8931 53.53V49.148L75.3631 47.678H78.7091L79.9971 48.952V50.114H78.7651V49.358L78.0651 48.658H75.8951L75.1251 49.428V53.194L75.8951 53.978H79.9271V55H75.3631ZM81.8814 55V44.682H83.1134V50.296H83.4214L86.3614 47.678H87.9854L84.8214 50.646L88.1954 55H86.7114L83.9674 51.444L83.1134 52.242V55H81.8814ZM90.6346 55L89.1646 53.53V49.148L90.6346 47.678H93.8966L95.3666 49.148V51.794H90.3966V53.208L91.1666 53.978H95.2406V55H90.6346ZM90.3966 50.814H94.1346V49.428L93.3646 48.658H91.1666L90.3966 49.428V50.814ZM97.4947 55V47.678H98.7267V48.994L100.001 47.678H101.877V48.91H100.057L98.7267 50.282V55H97.4947Z" fill="#DFF3E4"/>
</g>
</svg>
