<svg width="108" height="20" viewBox="0 0 108 20" fill="none" xmlns="http://www.w3.org/2000/svg">
<path d="M9.77166 18.5781L10 18.6953L10.2283 18.5781L19.5 13.8187V14.5614L10 19.438L0.5 14.5614V13.8187L9.77166 18.5781Z" stroke="#DFF3E4"/>
<path d="M9.77166 15.5781L10 15.6953L10.2283 15.5781L19.5 10.8187V11.5614L10 16.438L0.5 11.5614V10.8187L9.77166 15.5781Z" stroke="#DFF3E4"/>
<path d="M9.75097 12.4814L10 12.6019L10.249 12.4814L16.5784 9.41659L17.4387 9.00002L16.5784 8.58345L10.249 5.51869L10 5.39811L9.75098 5.51869L3.42161 8.58346L2.56132 9.00003L3.42161 9.41659L9.75097 12.4814ZM9.99999 13.305L1.10931 9.00003L10 4.69503L18.8907 9.00002L9.99999 13.305Z" stroke="#DFF3E4"/>
<path d="M24.6838 15V4.682H25.9578V9.008H31.0678V4.682H32.3418V15H31.0678V10.142H25.9578V15H24.6838ZM35.488 15L34.032 13.53V11.864L35.488 10.394H39.212V9.484L38.456 8.714H34.984V7.678H38.988L40.444 9.148V15H39.212V13.866L38.078 15H35.488ZM36.034 14.02H37.77L39.212 12.592V11.36L36.034 11.374L35.264 12.13V13.25L36.034 14.02ZM42.6744 15V4.682H43.9064V8.84L45.0264 7.678H47.7284L49.1844 9.148V13.53L47.7284 15H45.0264L43.9064 13.852V15H42.6744ZM45.3484 14.02H47.1964L47.9524 13.25V9.428L47.1964 8.658H45.3484L43.9064 10.128V12.564L45.3484 14.02ZM51.315 6.88V5.228H52.547V6.88H51.315ZM51.315 15V7.678H52.547V15H51.315ZM56.2007 15L54.9127 13.726V8.658H54.1427V7.678H54.9407L55.2487 5.802H56.1447V7.678H57.6987V8.658H56.1447V13.292L56.8027 13.978H58.0207V15H56.2007ZM61.6181 15V5.858H58.5521V4.682H65.9581V5.858H62.8921V15H61.6181ZM66.2037 15V7.678H67.4357V8.994L68.7097 7.678H70.5857V8.91H68.7657L67.4357 10.282V15H66.2037ZM72.3747 15L70.9187 13.53V11.864L72.3747 10.394H76.0987V9.484L75.3427 8.714H71.8707V7.678H75.8747L77.3307 9.148V15H76.0987V13.866L74.9647 15H72.3747ZM72.9207 14.02H74.6567L76.0987 12.592V11.36L72.9207 11.374L72.1507 12.13V13.25L72.9207 14.02ZM80.8631 15L79.3931 13.53V9.148L80.8631 7.678H84.2091L85.4971 8.952V10.114H84.2651V9.358L83.5651 8.658H81.3951L80.6251 9.428V13.194L81.3951 13.978H85.4271V15H80.8631ZM87.3814 15V4.682H88.6134V10.296H88.9214L91.8614 7.678H93.4854L90.3214 10.646L93.6954 15H92.2114L89.4674 11.444L88.6134 12.242V15H87.3814ZM96.1346 15L94.6646 13.53V9.148L96.1346 7.678H99.3966L100.867 9.148V11.794H95.8966V13.208L96.6666 13.978H100.741V15H96.1346ZM95.8966 10.814H99.6346V9.428L98.8646 8.658H96.6666L95.8966 9.428V10.814ZM102.995 15V7.678H104.227V8.994L105.501 7.678H107.377V8.91H105.557L104.227 10.282V15H102.995Z" />
</svg>
