<?xml version="1.0" encoding="UTF-8"?>
<svg xmlns="http://www.w3.org/2000/svg" xmlns:xlink="http://www.w3.org/1999/xlink" width="375pt" height="374.999991pt" viewBox="0 0 375 374.999991" version="1.2">
<defs>
<clipPath id="clip1">
  <path d="M 30.035156 0 L 345.015625 0 L 345.015625 375 L 30.035156 375 Z M 30.035156 0 "/>
</clipPath>
</defs>
<g id="surface1">
<g clip-path="url(#clip1)" clip-rule="nonzero">
<path style=" stroke:none;fill-rule:nonzero;fill:rgb(37.249756%,15.689087%,65.098572%);fill-opacity:1;" d="M 336.808594 86.753906 C 334.476562 85.027344 290.164062 52.675781 234.25 39.109375 C 226.300781 25.367188 203.828125 4.226562 189.542969 0.273438 C 188.882812 0.0898438 188.207031 0 187.527344 0 C 186.851562 0 186.171875 0.0898438 185.515625 0.273438 C 171.230469 4.226562 148.757812 25.367188 140.808594 39.109375 C 84.890625 52.675781 40.582031 85.027344 38.25 86.753906 C 33.109375 90.554688 30.035156 96.636719 30.035156 103.035156 C 30.035156 117.367188 30.835938 244.613281 58.539062 297.699219 C 71.367188 322.273438 95.988281 342.597656 131.726562 358.109375 C 158.117188 369.5625 181.1875 374.15625 183.722656 374.640625 C 184.972656 374.878906 186.253906 375 187.527344 375 C 188.804688 375 190.082031 374.878906 191.328125 374.640625 C 193.871094 374.15625 216.941406 369.5625 243.332031 358.109375 C 279.070312 342.597656 303.691406 322.273438 316.519531 297.699219 C 344.21875 244.613281 345.023438 117.367188 345.023438 103.035156 C 345.023438 96.636719 341.949219 90.554688 336.808594 86.753906 "/>
</g>
<path style=" stroke:none;fill-rule:nonzero;fill:rgb(53.329468%,41.569519%,86.669922%);fill-opacity:1;" d="M 165.679688 216.964844 L 165.230469 218.550781 C 164.976562 219.445312 164.753906 220.386719 164.570312 221.347656 L 164.371094 222.414062 L 164.222656 223.507812 C 164.097656 224.429688 164 225.378906 163.921875 226.414062 L 163.886719 226.863281 L 163.828125 227.960938 C 163.75 229.570312 163.722656 231.195312 163.746094 232.796875 L 163.78125 234.742188 L 161.890625 234.277344 C 155.042969 232.597656 148.859375 232.246094 144.878906 232.246094 L 144.289062 232.246094 L 144.128906 232.210938 C 143.4375 232.058594 142.769531 231.898438 142.152344 231.734375 L 141.933594 231.671875 C 141.691406 231.601562 141.449219 231.535156 141.214844 231.460938 L 140.113281 231.128906 L 140.207031 228.15625 L 140.207031 227.886719 L 140.324219 227.605469 C 140.585938 226.992188 140.886719 226.300781 141.214844 225.566406 L 141.527344 224.875 L 141.496094 224.875 L 142.480469 222.878906 C 143.195312 221.425781 143.890625 220.128906 144.546875 219.027344 L 145.074219 218.148438 L 146.621094 216.027344 C 147.398438 215.105469 148.121094 214.480469 148.835938 214.128906 L 149.285156 213.90625 Z M 123.855469 151.199219 C 116.957031 152.332031 111.394531 154.617188 107.273438 158.003906 C 113.378906 159.375 127.007812 163.382812 129.941406 172.257812 L 130.640625 174.378906 L 128.410156 174.226562 C 128.394531 174.222656 126.859375 174.117188 124.472656 174.117188 C 118.859375 174.117188 105.582031 174.746094 98.675781 180.320312 L 123.492188 204.464844 L 121.65625 205.425781 C 121.351562 205.585938 91.253906 221.488281 86.480469 240.121094 C 85.09375 245.535156 86.019531 250.726562 89.238281 255.546875 C 105.988281 280.667969 125.867188 284.574219 126.066406 284.609375 L 127.34375 284.847656 L 125.453125 333.503906 L 123.289062 332.234375 C 117.320312 328.726562 114.058594 326.15625 113.921875 326.046875 L 113.347656 325.59375 L 113.429688 316.761719 L 113.621094 297.140625 C 113.207031 297.148438 112.796875 297.152344 112.390625 297.152344 C 100.625 297.152344 91.429688 293.894531 85.066406 287.472656 C 76.105469 278.433594 75.960938 266.324219 75.972656 264.976562 L 78.972656 265 C 78.96875 265.761719 79.023438 280.765625 91.691406 288.925781 C 83.679688 278.007812 81.445312 258.355469 80.828125 249.296875 L 71.570312 263.804688 L 70.300781 261.839844 C 70.039062 261.425781 63.816406 251.480469 68.238281 231.472656 C 71.882812 214.996094 86.6875 209.515625 92.355469 208 C 84.722656 197.851562 68.019531 197.464844 67.839844 197.464844 L 66.082031 197.433594 L 66.386719 195.703125 C 66.414062 195.5625 68.929688 181.464844 73.890625 169.144531 C 74.28125 168.179688 74.675781 167.175781 75.078125 166.152344 L 75.117188 166.058594 C 75.117188 166.058594 75.167969 165.960938 75.171875 165.953125 L 76.578125 162.261719 C 79.78125 153.839844 82.992188 144.753906 84.347656 140.867188 C 78.074219 141.199219 71.566406 145.710938 71.496094 145.761719 L 69.289062 143.875 C 74.878906 132.425781 93.304688 121.0625 99.492188 117.484375 L 99.34375 116.480469 C 101.269531 116.195312 103.226562 116.054688 105.15625 116.054688 C 133.617188 116.054688 155.453125 147.203125 165.941406 165.769531 C 169.179688 171.507812 174.375 175.992188 180.566406 178.398438 L 181.523438 178.769531 L 181.523438 182.078125 L 179.492188 181.316406 C 173.234375 178.953125 167.832031 174.546875 164.285156 168.90625 L 153.898438 152.402344 C 151.726562 151.933594 143.808594 150.378906 134.667969 150.378906 C 131.761719 150.378906 128.960938 150.535156 126.355469 150.847656 L 125.480469 150.949219 L 125.472656 150.933594 Z M 107.355469 301.058594 L 108.378906 301.410156 L 108.160156 324.074219 L 105.816406 322.410156 C 105.417969 322.121094 105.015625 321.832031 104.617188 321.542969 L 104.011719 321.101562 C 103.824219 320.964844 103.121094 320.429688 103.121094 320.429688 C 101.820312 319.457031 100.691406 318.582031 99.667969 317.757812 C 99.519531 317.640625 98.621094 316.902344 98.621094 316.902344 C 98.261719 316.609375 97.90625 316.316406 97.550781 316.019531 C 97.417969 315.90625 96.683594 315.273438 96.683594 315.273438 C 96.28125 314.929688 95.878906 314.582031 95.480469 314.230469 C 95.34375 314.113281 95.210938 313.992188 95.074219 313.867188 L 94.632812 313.46875 C 94.238281 313.113281 93.839844 312.761719 93.453125 312.402344 C 93.324219 312.277344 92.554688 311.546875 92.554688 311.546875 C 92.191406 311.207031 91.832031 310.867188 91.480469 310.519531 L 91.398438 310.441406 C 90.742188 309.796875 90.144531 309.199219 89.554688 308.59375 C 89.40625 308.441406 88.820312 307.816406 88.820312 307.816406 L 88.523438 307.503906 C 88.242188 307.210938 87.960938 306.917969 87.6875 306.621094 L 87.453125 306.355469 C 86.265625 305.054688 85.148438 303.765625 84.132812 302.523438 C 83.945312 302.296875 83.777344 302.078125 83.609375 301.863281 L 80.566406 298.023438 L 84.894531 299.144531 C 88.394531 300.046875 91.746094 300.167969 94.566406 300.167969 C 95.484375 300.167969 96.386719 300.15625 97.261719 300.140625 C 98.113281 300.128906 98.945312 300.113281 99.757812 300.113281 C 102.285156 300.113281 104.957031 300.226562 107.355469 301.058594 Z M 318.9375 244.722656 C 318.828125 245.75 318.683594 246.824219 318.488281 248.101562 L 315.515625 248.054688 C 315.441406 247.445312 315.359375 246.835938 315.265625 246.230469 L 314.582031 242.644531 L 314.351562 241.8125 L 314.5625 242.695312 L 315.199219 246.183594 C 315.917969 251.125 315.972656 255.988281 315.375 260.699219 L 315.359375 260.851562 L 315.191406 261.332031 L 312.273438 260.792969 C 312.308594 259.660156 312.304688 258.535156 312.265625 257.445312 L 312.0625 254.242188 L 311.957031 253.457031 L 312.035156 254.210938 L 312.207031 257.402344 C 312.308594 261.816406 311.921875 266.105469 311.066406 270.203125 L 310.734375 271.597656 L 310.644531 271.761719 C 307.441406 277.867188 304.015625 282.433594 301.707031 285.191406 C 299.722656 287.5625 298.386719 288.824219 298.328125 288.878906 L 294.421875 292.546875 L 295.855469 287.382812 C 295.882812 287.289062 297.816406 280.203125 297.636719 273.234375 C 295.453125 280.902344 290.011719 291.824219 276.453125 295.820312 L 275.972656 294.828125 C 274.820312 295.289062 273.589844 295.65625 272.191406 295.960938 C 269.890625 296.457031 267.457031 296.707031 264.957031 296.707031 C 264.699219 296.707031 264.449219 296.703125 264.195312 296.699219 C 259.808594 296.609375 255.019531 295.832031 249.132812 294.246094 L 248.066406 293.957031 L 247.710938 284.84375 L 248.996094 284.609375 C 249.050781 284.601562 254.230469 283.605469 261.453125 279.367188 C 242.273438 275.4375 205.132812 260.359375 186.660156 247.269531 L 186.050781 246.832031 L 186.039062 246.851562 L 184.566406 245.730469 C 183.949219 245.261719 183.359375 244.796875 182.796875 244.335938 C 177.835938 240.261719 171.808594 237.15625 164.886719 235.09375 L 163.839844 234.78125 L 163.8125 233.699219 C 163.746094 231.269531 163.773438 229.105469 163.902344 227.074219 C 164.128906 223.664062 164.597656 220.785156 165.335938 218.277344 L 165.71875 216.976562 L 169.859375 217.75 C 170.777344 216.347656 172.847656 214.152344 176.863281 213.972656 C 177.066406 213.964844 177.28125 213.957031 177.519531 213.957031 C 179.96875 213.957031 183.730469 214.46875 187.847656 215.363281 C 192.777344 216.433594 202.660156 219.035156 213.398438 224.4375 C 226.898438 231.226562 266.777344 236.640625 275.726562 237.789062 C 275.503906 235.570312 274.851562 231.378906 272.925781 226.355469 C 272.617188 225.558594 270.320312 225.277344 268.472656 225.054688 C 265.503906 224.695312 262.136719 224.285156 260.417969 221.796875 C 259.027344 219.789062 259.125 216.792969 259.226562 213.625 C 259.289062 211.722656 259.351562 209.757812 259.070312 208.140625 C 259.035156 207.945312 259 207.761719 258.953125 207.585938 L 258.640625 208.445312 L 257.085938 207.515625 C 256.253906 207.023438 255.539062 206.609375 254.964844 206.285156 L 253.125 205.246094 L 254.707031 203.851562 C 255.726562 202.957031 256.796875 202.0625 257.828125 201.199219 C 258.429688 200.699219 259.035156 200.195312 259.636719 199.679688 C 260.640625 198.824219 261.476562 198.078125 262.21875 197.371094 L 260.683594 195.59375 L 276.378906 180.320312 C 269.476562 174.746094 256.203125 174.117188 250.589844 174.117188 L 247.613281 174.125 L 249.066406 171.820312 C 249.417969 171.261719 249.78125 170.707031 250.15625 170.164062 C 251.585938 168.148438 253.003906 166.398438 254.488281 164.804688 L 255.671875 163.574219 L 256.917969 162.367188 L 257.101562 162.203125 C 257.476562 161.875 257.804688 161.589844 258.0625 161.253906 L 258.316406 160.9375 L 258.691406 160.789062 C 262.148438 159.414062 265.503906 158.523438 267.785156 158.007812 C 263.714844 154.65625 258.226562 152.382812 251.425781 151.234375 L 249.347656 150.886719 L 249.328125 150.917969 L 248.457031 150.816406 C 245.917969 150.527344 243.203125 150.378906 240.386719 150.378906 C 231.234375 150.378906 223.328125 151.933594 221.15625 152.402344 L 210.773438 168.90625 C 207.722656 173.75 203.382812 177.648438 198.21875 180.167969 L 196.0625 181.226562 L 196.0625 177.757812 L 196.894531 177.34375 C 202.066406 174.769531 206.292969 170.769531 209.117188 165.769531 C 219.601562 147.203125 241.441406 116.054688 269.902344 116.054688 C 271.832031 116.054688 273.789062 116.195312 275.714844 116.480469 C 301.066406 120.234375 311.417969 137.464844 315.640625 151.253906 L 312.894531 152.421875 C 312.894531 152.421875 312.660156 151.992188 312.605469 151.902344 C 311.746094 150.386719 310.808594 148.914062 309.800781 147.503906 C 310.796875 148.960938 311.714844 150.4375 312.554688 151.921875 C 315.207031 156.648438 317.1875 161.6875 318.445312 166.90625 L 318.527344 167.269531 L 318.53125 167.394531 C 318.675781 169.785156 318.625 171.21875 318.621094 171.28125 L 318.414062 177.039062 L 315.789062 171.910156 C 313.757812 167.945312 308.308594 158.765625 302.824219 153.941406 C 306.011719 159.859375 311.210938 170.292969 314.816406 181.367188 L 312.175781 182.417969 L 313.121094 184.578125 L 314.363281 187.90625 L 315.464844 191.308594 C 316.835938 196.039062 317.667969 200.789062 317.953125 205.46875 L 318.117188 210.34375 L 315.957031 209.433594 C 314.242188 208.710938 308.027344 206.347656 300.109375 206.347656 C 299.285156 206.347656 298.464844 206.375 297.648438 206.425781 C 303.136719 209.730469 312.429688 216.703125 316.800781 227.972656 C 318.835938 233.230469 319.558594 238.867188 318.9375 244.722656 Z M 261.535156 307.363281 L 259.121094 307.691406 L 259.152344 307.902344 L 259.402344 309.917969 C 259.683594 312.480469 259.824219 315.121094 259.832031 318.003906 C 259.820312 319.839844 259.726562 321.675781 259.554688 323.484375 L 259.550781 323.535156 L 259.683594 323.453125 L 259.007812 327.613281 L 258.097656 328.242188 L 255.441406 330.050781 L 255.855469 325.804688 L 255.878906 325.789062 L 255.984375 323.59375 C 256.007812 323.066406 256.019531 322.53125 256.019531 321.988281 C 255.984375 322.65625 255.949219 323.3125 255.914062 323.953125 C 255.890625 324.316406 255.855469 324.660156 255.828125 325.003906 L 255.746094 325.925781 L 255.800781 325.894531 C 255.800781 325.894531 255.359375 329.304688 255.339844 329.429688 L 255.242188 330.121094 L 254.652344 330.488281 C 253.777344 331.035156 252.8125 331.621094 251.765625 332.234375 L 249.605469 333.503906 L 248.464844 304.179688 L 249.363281 303.757812 C 253.78125 301.675781 257.152344 299.800781 259.199219 298.59375 L 261.4375 297.273438 Z M 57.128906 144.152344 C 55.628906 147.976562 54.429688 152.101562 53.574219 156.398438 L 50.605469 156.195312 C 48.832031 126.515625 48.789062 104.003906 48.789062 103.058594 L 48.789062 102.300781 L 49.398438 101.828125 C 49.398438 101.828125 49.855469 101.488281 50.742188 100.863281 C 51.035156 100.65625 51.375 100.417969 51.757812 100.152344 L 52.648438 99.539062 C 53.285156 99.101562 54.011719 98.605469 54.828125 98.0625 C 55.234375 97.789062 55.664062 97.503906 56.109375 97.210938 C 69.996094 88.046875 98.4375 71.125 132.921875 60.683594 L 135.585938 59.875 L 134.792969 62.546875 C 131.851562 72.449219 127.710938 86.046875 123.140625 100.828125 C 122.355469 103.367188 122.25 106.058594 122.832031 108.648438 L 125.367188 110.59375 L 123.902344 113.179688 C 118.167969 110.910156 112.28125 109.757812 106.398438 109.757812 C 104.183594 109.757812 101.9375 109.925781 99.730469 110.257812 C 79.371094 113.316406 64.640625 125.039062 57.128906 144.152344 Z M 194.523438 106.769531 L 194.371094 106.949219 L 189.027344 110.304688 L 189.027344 141.839844 L 186.863281 140.765625 C 185.808594 140.242188 161.136719 127.785156 160.082031 109.144531 L 162.988281 108.546875 C 163.039062 108.679688 164.070312 111.355469 166.625 112.445312 C 166.1875 110.128906 165.007812 106.339844 161.863281 104.175781 L 161 103.585938 L 161.261719 102.570312 C 161.3125 102.359375 162.632812 97.449219 168.480469 96.046875 L 169.359375 95.832031 L 173.554688 100.601562 C 174.121094 101.242188 174.9375 101.613281 175.785156 101.613281 L 175.875 103.113281 L 175.886719 101.609375 C 177.265625 101.597656 178.445312 100.644531 178.761719 99.296875 C 179.164062 97.601562 180.0625 96.089844 181.363281 94.925781 L 183.714844 92.8125 L 186.015625 94.683594 L 184.402344 97.445312 C 183.90625 98.296875 183.898438 99.3125 184.390625 100.167969 C 184.878906 101.023438 185.761719 101.535156 186.746094 101.539062 L 188.25 101.539062 C 189.246094 101.535156 190.136719 101.015625 190.632812 100.148438 C 191.128906 99.28125 191.125 98.246094 190.621094 97.386719 L 189.042969 94.683594 L 191.339844 92.8125 L 193.695312 94.925781 C 197.148438 98.019531 197.511719 103.222656 194.523438 106.769531 Z M 244.429688 109.671875 C 244.230469 109.105469 244.050781 108.53125 243.875 107.960938 C 243.761719 107.601562 243.648438 107.242188 243.535156 106.894531 C 243.449219 106.613281 243.355469 106.332031 243.261719 106.050781 L 242.4375 103.550781 L 234.238281 109.816406 L 230.429688 112.726562 C 230.429688 112.726562 229.84375 113.246094 229.574219 113.492188 L 229.570312 113.445312 L 227.214844 115.671875 C 217.039062 125.277344 208.621094 136.425781 202.1875 148.804688 C 197.261719 158.285156 191.21875 165.175781 188.90625 167.640625 C 188.792969 167.539062 188.671875 167.429688 188.539062 167.308594 C 185.550781 164.578125 177.992188 157.136719 172.410156 146.980469 C 165.484375 134.390625 156.3125 123.019531 145.144531 113.1875 L 145.050781 113.101562 C 144.882812 112.066406 144.933594 111.003906 145.207031 109.996094 C 147.785156 100.429688 156.292969 68.714844 157.601562 62.203125 C 157.777344 61.335938 158.351562 59.691406 160.09375 56.792969 C 162.109375 53.441406 165.089844 49.433594 168.484375 45.515625 C 172.191406 41.238281 176.035156 37.464844 179.597656 34.597656 C 182.820312 32.007812 185.71875 30.261719 187.980469 29.539062 L 189.027344 29.207031 L 189.027344 13.878906 C 198.574219 18.335938 208.390625 28.292969 216.015625 36.660156 C 217.140625 37.890625 218.195312 39.0625 219.15625 40.132812 C 221.714844 42.976562 223.558594 45.035156 224.769531 46.0625 C 224.847656 46.128906 225.292969 46.570312 226.195312 48.539062 C 227.28125 50.917969 228.65625 54.707031 230.285156 59.792969 C 234.792969 73.890625 239.972656 93.988281 241.992188 101.976562 L 242.007812 102.039062 L 242.027344 102.101562 C 242.628906 103.832031 243.148438 105.390625 243.609375 106.855469 C 243.609375 106.855469 244.035156 108.238281 244.136719 108.570312 L 244.65625 110.320312 Z M 127.359375 107.992188 L 127.488281 108.488281 L 128.539062 109.296875 C 128.828125 109.515625 129.113281 109.742188 129.398438 109.96875 L 132.4375 112.351562 L 132.242188 109.035156 C 132.21875 108.578125 132.207031 108.128906 132.203125 107.675781 C 132.230469 108.367188 132.273438 109.0625 132.335938 109.765625 C 132.410156 110.480469 132.523438 111.25 132.675781 112.121094 L 132.773438 112.664062 L 133.199219 113.015625 C 133.980469 113.65625 134.753906 114.308594 135.523438 114.96875 L 138.613281 117.613281 L 137.980469 113.597656 C 137.917969 113.214844 137.867188 112.828125 137.820312 112.4375 C 137.914062 112.972656 138.125 114.167969 138.125 114.167969 C 138.332031 115.25 138.574219 116.359375 138.859375 117.554688 L 138.964844 118.003906 L 139.304688 118.316406 C 149.167969 127.316406 157.5625 137.257812 164.253906 147.863281 C 172.003906 160.132812 182.457031 169.105469 186.59375 172.394531 C 187.023438 172.738281 187.394531 173.023438 187.6875 173.253906 C 188.285156 173.707031 188.617188 173.945312 188.617188 173.945312 L 189.574219 174.628906 L 190.464844 173.871094 C 190.488281 173.851562 191.078125 173.351562 192.066406 172.425781 C 195.28125 169.421875 203.488281 161.21875 210.226562 149.921875 C 215.660156 140.808594 222.273438 132.175781 229.878906 124.257812 L 230.332031 123.742188 C 230.332031 123.742188 230.285156 122.9375 230.28125 122.910156 C 230.226562 122.03125 230.128906 121.15625 230.035156 120.308594 C 230 120.019531 229.96875 119.722656 229.941406 119.414062 C 230.003906 119.710938 230.0625 120.007812 230.105469 120.304688 L 230.140625 120.574219 L 230.574219 123.5 L 232.679688 121.421875 C 233.503906 120.605469 234.339844 119.800781 235.183594 119.003906 L 235.722656 118.496094 L 235.648438 117.757812 C 235.601562 117.347656 235.558594 116.9375 235.5 116.511719 L 235.34375 115.453125 C 235.371094 115.550781 235.394531 115.648438 235.417969 115.75 L 235.996094 118.21875 L 238.1875 116.246094 C 238.550781 115.921875 238.910156 115.59375 239.277344 115.269531 L 239.894531 114.730469 L 239.773438 113.921875 C 239.640625 113.054688 239.5 112.195312 239.355469 111.332031 C 239.285156 110.929688 239.21875 110.527344 239.15625 110.125 C 239.253906 110.523438 239.34375 110.921875 239.425781 111.316406 C 239.449219 111.457031 239.472656 111.597656 239.5 111.738281 L 240.023438 114.597656 L 241.996094 112.949219 C 242.644531 112.402344 243.296875 111.867188 243.957031 111.332031 L 244.78125 110.667969 L 244.773438 110.65625 L 246.492188 109.328125 L 247.160156 108.800781 L 247.566406 108.488281 L 247.699219 107.992188 C 248.199219 106.074219 248.152344 104.0625 247.566406 102.171875 C 245.597656 95.804688 238.839844 73.902344 234.546875 59.273438 C 233.042969 54.140625 231.976562 50.371094 231.382812 48.078125 C 231.238281 47.523438 231.121094 47.039062 231.027344 46.640625 C 230.292969 43.464844 227.179688 39.015625 224.695312 35.847656 C 216.570312 25.476562 199.792969 9.390625 187.929688 6.109375 L 187.527344 5.996094 L 187.128906 6.109375 C 175.265625 9.390625 158.484375 25.476562 150.363281 35.847656 C 147.878906 39.015625 144.761719 43.464844 144.03125 46.636719 C 143.9375 47.035156 143.820312 47.523438 143.671875 48.078125 C 143.078125 50.382812 142.011719 54.152344 140.511719 59.273438 C 136.21875 73.890625 129.460938 95.804688 127.488281 102.171875 C 126.90625 104.0625 126.859375 106.074219 127.359375 107.992188 "/>
<path style=" stroke:none;fill-rule:nonzero;fill:rgb(100%,100%,100%);fill-opacity:1;" d="M 214.101562 82.011719 L 213.070312 81.683594 C 212.964844 81.648438 211.957031 81.347656 210.511719 81.347656 C 207.773438 81.347656 202.804688 82.449219 200.320312 89.832031 L 199.765625 91.488281 L 201.488281 91.785156 C 201.53125 91.796875 202.605469 91.980469 204.085938 91.980469 C 206.453125 91.980469 209.738281 91.511719 211.933594 89.277344 C 213.433594 87.746094 214.171875 85.667969 214.125 83.089844 Z M 176.710938 89.832031 L 177.269531 91.488281 L 175.546875 91.785156 C 175.5 91.796875 174.429688 91.980469 172.953125 91.980469 C 170.582031 91.980469 167.292969 91.511719 165.101562 89.277344 C 163.601562 87.746094 162.863281 85.667969 162.914062 83.089844 L 162.933594 82.011719 L 163.960938 81.683594 C 164.074219 81.648438 165.078125 81.347656 166.523438 81.347656 C 169.261719 81.347656 174.230469 82.449219 176.710938 89.832031 "/>
<path style=" stroke:none;fill-rule:nonzero;fill:rgb(79.219055%,70.979309%,94.509888%);fill-opacity:1;" d="M 182.394531 14.710938 C 182.394531 14.710938 166.121094 23.542969 160.664062 30.28125 C 159.179688 32.109375 157.859375 34.023438 156.722656 35.839844 C 153.671875 40.726562 151.945312 44.921875 151.945312 44.921875 C 151.945312 44.921875 155.777344 40.691406 161.074219 35.167969 C 167.429688 28.535156 175.894531 20.035156 182.394531 14.710938 Z M 170.53125 72.578125 C 169.625 74.507812 180.730469 82.550781 180.957031 81.753906 C 181.183594 80.964844 179.824219 72.695312 181.75 73.375 C 182.53125 73.648438 183.628906 76.914062 184.65625 80.703125 C 185.054688 82.167969 186.292969 82.902344 187.527344 82.902344 C 188.765625 82.902344 190.003906 82.167969 190.398438 80.703125 C 191.429688 76.914062 192.527344 73.648438 193.304688 73.375 C 195.234375 72.695312 193.875 80.964844 194.101562 81.753906 C 194.328125 82.550781 205.433594 74.507812 204.527344 72.578125 C 203.78125 70.996094 192.730469 60.414062 188.859375 56.734375 C 188.484375 56.378906 188.003906 56.203125 187.527344 56.203125 C 187.050781 56.203125 186.574219 56.378906 186.199219 56.734375 C 182.328125 60.414062 171.277344 70.996094 170.53125 72.578125 Z M 274.328125 225.820312 C 273.039062 222.46875 264.269531 224.730469 261.652344 220.945312 C 259.785156 218.246094 261.316406 212.242188 260.546875 207.878906 C 260.277344 206.34375 259.726562 205.011719 258.636719 204.097656 L 257.851562 206.230469 L 256.183594 210.792969 L 250.769531 225.5625 C 255.269531 225.644531 259.640625 226.632812 263.8125 228.011719 C 265.941406 228.742188 268.03125 229.570312 270.058594 230.523438 C 272.078125 231.476562 274.070312 232.507812 275.945312 233.726562 C 271.777344 232.140625 267.585938 230.722656 263.328125 229.628906 C 259.089844 228.53125 254.761719 227.726562 250.464844 227.722656 C 249.195312 227.710938 247.964844 227.605469 246.753906 227.460938 C 246.707031 227.464844 246.667969 227.476562 246.625 227.480469 C 246.523438 227.484375 246.425781 227.476562 246.332031 227.457031 C 246.105469 227.410156 245.875 227.367188 245.652344 227.320312 C 244.988281 227.230469 244.328125 227.136719 243.671875 227.035156 C 241.453125 226.6875 239.253906 226.300781 237.066406 225.878906 C 232.683594 225.039062 228.328125 224.113281 223.980469 223.152344 C 215.292969 221.226562 206.636719 219.179688 198.007812 217.027344 C 194.511719 216.160156 191.019531 215.277344 187.527344 214.386719 C 182.574219 213.128906 177.625 211.855469 172.679688 210.554688 C 170.089844 211.683594 168.308594 214.300781 167.25 217.230469 C 167.074219 217.710938 166.921875 218.203125 166.773438 218.699219 L 170.65625 219.425781 C 170.65625 219.425781 172.050781 215.6875 176.929688 215.46875 C 178.9375 215.382812 182.703125 215.78125 187.527344 216.828125 C 194.453125 218.332031 203.546875 221.160156 212.726562 225.777344 C 228.296875 233.605469 277.339844 239.507812 277.339844 239.507812 C 277.339844 239.507812 277.339844 233.667969 274.328125 225.820312 Z M 143.328125 219.167969 C 143.328125 219.179688 143.324219 219.191406 143.316406 219.207031 C 143.113281 219.929688 142.871094 220.644531 142.683594 221.382812 L 142.265625 223.539062 C 142.746094 223.507812 143.222656 223.492188 143.691406 223.527344 C 143.738281 223.53125 143.78125 223.539062 143.824219 223.539062 C 144.453125 222.261719 145.132812 220.972656 145.835938 219.796875 C 145.378906 219.71875 144.921875 219.632812 144.464844 219.519531 C 144.085938 219.425781 143.707031 219.300781 143.328125 219.167969 Z M 141.707031 228.191406 C 141.964844 227.585938 142.257812 226.902344 142.585938 226.183594 C 142.367188 226.101562 142.15625 226.011719 141.941406 225.917969 C 141.867188 226.675781 141.75 227.429688 141.707031 228.191406 Z M 160.523438 215.910156 C 158.785156 215.617188 157.039062 215.359375 155.289062 215.117188 C 153.53125 214.902344 151.773438 214.707031 150 214.585938 C 149.117188 214.515625 148.230469 214.503906 147.347656 214.367188 C 146.90625 214.304688 146.460938 214.1875 146.019531 214.058594 C 145.953125 214.035156 145.882812 214.015625 145.816406 213.996094 C 145.566406 214.363281 145.324219 214.738281 145.109375 215.136719 C 144.835938 215.632812 144.546875 216.121094 144.3125 216.644531 C 144.496094 216.636719 144.683594 216.632812 144.867188 216.636719 C 145.847656 216.671875 146.808594 216.84375 147.769531 216.992188 C 148.367188 216.285156 148.953125 215.746094 149.503906 215.46875 L 163.785156 218.140625 C 163.929688 217.632812 164.085938 217.128906 164.261719 216.628906 C 163.863281 216.589844 163.496094 216.496094 163.113281 216.417969 C 162.257812 216.21875 161.386719 216.078125 160.523438 215.910156 Z M 154.578125 210.179688 C 153.324219 209.996094 152.070312 209.808594 150.816406 209.628906 C 150.644531 209.699219 150.429688 209.792969 150.25 209.882812 C 149.953125 210.023438 149.660156 210.222656 149.367188 210.386719 L 148.523438 211 C 148.359375 211.140625 148.199219 211.285156 148.039062 211.433594 C 148.761719 211.414062 149.484375 211.472656 150.203125 211.511719 C 152.046875 211.632812 153.886719 211.808594 155.71875 212.089844 C 157.554688 212.347656 159.371094 212.78125 161.15625 213.316406 C 162.042969 213.605469 162.925781 213.894531 163.792969 214.265625 C 164.191406 214.40625 164.59375 214.574219 164.957031 214.828125 C 165.304688 214.050781 165.707031 213.289062 166.167969 212.554688 L 157.144531 210.707031 Z M 61.277344 159.570312 L 62.757812 157.230469 L 64.316406 154.9375 C 64.855469 154.1875 65.398438 153.4375 65.957031 152.707031 L 67.6875 150.546875 L 69.484375 148.445312 C 70.113281 147.769531 70.699219 147.058594 71.40625 146.457031 C 72.140625 145.878906 72.941406 145.363281 73.9375 145.046875 C 73.714844 146.078125 73.296875 146.910156 72.820312 147.683594 C 72.355469 148.476562 71.769531 149.152344 71.226562 149.863281 L 69.636719 152.039062 L 68.121094 154.257812 C 67.640625 155.019531 67.144531 155.761719 66.648438 156.507812 L 65.234375 158.78125 L 63.886719 161.101562 L 62.890625 162.882812 C 66.488281 157.476562 71.539062 151.175781 76.339844 149.6875 C 76.339844 149.6875 61.695312 174.003906 58.308594 195.355469 C 59.558594 192.230469 60.90625 189.144531 62.375 186.121094 L 63.945312 182.957031 L 65.621094 179.851562 L 67.367188 176.789062 C 67.96875 175.777344 68.574219 174.769531 69.199219 173.773438 L 71.121094 170.816406 L 73.105469 167.910156 C 73.796875 166.960938 74.445312 165.976562 75.226562 165.09375 C 76.027344 164.238281 76.894531 163.433594 77.980469 162.792969 C 82.234375 151.609375 86.441406 139.421875 86.441406 139.421875 C 79.003906 138.648438 70.632812 144.53125 70.632812 144.53125 C 77.125 131.246094 102.078125 117.746094 102.214844 117.671875 C 101.335938 117.742188 100.453125 117.835938 99.5625 117.964844 C 65.863281 122.957031 59.402344 152.398438 58.195312 165.242188 C 58.742188 164.140625 59.300781 163.050781 59.898438 161.980469 Z M 77.472656 264.917969 C 77.472656 264.917969 77.472656 264.945312 77.472656 264.984375 C 77.472656 264.984375 77.472656 264.988281 77.472656 264.988281 C 77.460938 266.386719 77.652344 288.648438 100.707031 294.328125 C 82.929688 287.886719 82.101562 244.515625 82.101562 244.515625 L 71.566406 261.027344 C 71.566406 261.027344 65.363281 251.421875 69.703125 231.796875 C 74.042969 212.171875 94.804688 208.976562 94.804688 208.976562 C 87.367188 196.273438 67.863281 195.964844 67.863281 195.964844 C 67.863281 195.964844 70.324219 182.019531 75.285156 169.707031 C 75.671875 168.734375 76.070312 167.726562 76.476562 166.699219 C 76.007812 167.535156 75.496094 168.332031 74.984375 169.140625 L 73.199219 172.117188 L 71.484375 175.128906 C 70.945312 176.152344 70.378906 177.160156 69.816406 178.167969 L 68.199219 181.230469 C 67.15625 183.292969 66.132812 185.359375 65.132812 187.4375 C 63.167969 191.613281 61.355469 195.859375 59.746094 200.183594 L 58.570312 203.441406 C 58.292969 204.273438 57.996094 205.097656 57.691406 205.921875 C 57.742188 206.734375 57.816406 207.53125 57.925781 208.316406 C 57.925781 208.316406 68.976562 203.015625 82.289062 205.527344 C 82.289062 205.527344 72.371094 209.847656 65.058594 219.144531 L 64.464844 220.726562 C 63.269531 224.183594 62.464844 227.773438 62 231.40625 L 61.734375 234.140625 L 61.574219 236.886719 L 61.5625 239.34375 L 61.5625 239.632812 C 61.609375 240.550781 61.65625 241.46875 61.679688 242.386719 L 61.914062 245.136719 L 62.304688 247.871094 C 62.476562 248.777344 62.703125 249.667969 62.769531 250.609375 C 62.878906 251.535156 62.910156 252.488281 62.679688 253.558594 C 62.59375 253.480469 62.523438 253.390625 62.445312 253.308594 C 62.953125 254.683594 63.511719 256.039062 64.148438 257.363281 L 65.285156 259.574219 L 66.546875 261.730469 C 66.605469 261.824219 66.664062 261.914062 66.722656 262.003906 C 67.132812 262.601562 67.550781 263.191406 67.875 263.859375 C 68.289062 264.597656 68.640625 265.390625 68.796875 266.398438 C 68.460938 266.292969 68.15625 266.152344 67.863281 265.996094 C 67.332031 265.722656 66.851562 265.386719 66.40625 265.019531 C 65.765625 264.410156 65.246094 263.695312 64.6875 263.015625 L 63.15625 260.863281 L 61.78125 258.601562 C 60.578125 256.464844 59.570312 254.210938 58.773438 251.886719 C 62.117188 267.648438 70.015625 278.871094 74.5 284.230469 C 76.449219 286.558594 77.757812 287.785156 77.757812 287.785156 C 77.757812 287.785156 73.792969 273.566406 77.472656 264.917969 Z M 268.371094 321.1875 C 269.703125 320.234375 271.023438 319.265625 272.320312 318.265625 C 279.90625 312.425781 286.796875 305.765625 292.359375 298.210938 C 285.015625 300.375 275.097656 302.574219 268.191406 302.476562 Z M 88.5625 305.347656 C 87.4375 304.113281 86.34375 302.859375 85.292969 301.574219 C 86.34375 302.859375 87.4375 304.113281 88.5625 305.347656 Z M 299.074219 86.910156 C 298.558594 86.625 298.039062 86.335938 297.511719 86.042969 C 296.390625 85.425781 295.242188 84.800781 294.066406 84.167969 C 292.523438 83.34375 290.9375 82.507812 289.308594 81.664062 C 287.851562 80.914062 286.359375 80.160156 284.835938 79.402344 C 284.832031 79.402344 284.828125 79.398438 284.828125 79.398438 C 278.597656 76.3125 271.804688 73.199219 264.574219 70.253906 C 262.765625 69.519531 260.933594 68.792969 259.070312 68.078125 C 255.351562 66.65625 251.53125 65.285156 247.621094 63.992188 C 245.671875 63.347656 243.695312 62.722656 241.699219 62.113281 C 244.941406 73.015625 249.300781 87.296875 253.351562 100.386719 C 254.269531 103.347656 254.34375 106.507812 253.558594 109.515625 L 251.480469 111.109375 C 251.203125 111.324219 250.929688 111.546875 250.652344 111.765625 C 256.3125 109.53125 262.316406 108.257812 268.660156 108.257812 C 270.949219 108.257812 273.265625 108.429688 275.550781 108.773438 C 296.472656 111.917969 311.605469 123.964844 319.324219 143.605469 C 321.039062 147.972656 322.1875 152.253906 322.953125 156.105469 C 324.765625 125.796875 324.765625 103.035156 324.765625 103.035156 C 324.765625 103.035156 315.019531 95.828125 299.074219 86.910156 Z M 84.519531 300.59375 C 84.773438 300.917969 85.023438 301.242188 85.285156 301.5625 C 85.023438 301.242188 84.773438 300.917969 84.519531 300.59375 "/>
<path style=" stroke:none;fill-rule:nonzero;fill:rgb(6.269836%,5.879211%,5.099487%);fill-opacity:1;" d="M 242.738281 288.203125 C 242.855469 288.507812 243.128906 288.601562 242.667969 289.660156 C 241.753906 290.347656 241.570312 290.074219 241.226562 290.007812 C 240.917969 289.898438 240.613281 289.773438 240.34375 289.609375 C 239.8125 289.273438 239.382812 288.8125 238.9375 288.378906 C 238.066406 287.484375 237.25 286.539062 236.527344 285.527344 C 235.800781 284.515625 235.183594 283.425781 234.6875 282.285156 L 234.335938 281.425781 L 234.039062 280.542969 C 233.957031 280.246094 233.824219 279.964844 233.839844 279.625 C 233.875 279.28125 233.992188 278.90625 234.375 278.441406 C 235.554688 278.617188 235.800781 279.101562 236.085938 279.59375 L 237.03125 281 C 237.664062 281.921875 238.324219 282.820312 238.996094 283.703125 C 239.671875 284.582031 240.378906 285.433594 241.148438 286.230469 L 241.734375 286.820312 C 241.933594 287.007812 242.121094 287.214844 242.285156 287.445312 C 242.464844 287.664062 242.601562 287.925781 242.738281 288.203125 Z M 162.714844 102.941406 C 162.714844 102.941406 163.792969 98.710938 168.832031 97.503906 L 172.429688 101.59375 C 173.292969 102.574219 174.53125 103.128906 175.839844 103.113281 C 175.863281 103.113281 175.886719 103.113281 175.910156 103.109375 C 177.976562 103.089844 179.746094 101.652344 180.222656 99.640625 C 180.542969 98.296875 181.257812 97.035156 182.363281 96.039062 L 184.71875 93.929688 L 183.105469 96.6875 C 181.46875 99.496094 183.488281 103.027344 186.738281 103.039062 L 188.25 103.039062 C 191.535156 103.023438 193.570312 99.460938 191.914062 96.628906 L 190.335938 93.929688 L 192.695312 96.039062 C 195.523438 98.578125 195.824219 102.898438 193.375 105.800781 L 187.527344 109.476562 L 187.527344 109.472656 L 181.878906 105.929688 C 180.808594 105.34375 179.925781 104.640625 179.402344 103.847656 C 179.402344 103.847656 178.691406 110.078125 187.527344 111.4375 L 187.527344 139.421875 C 187.523438 139.417969 162.597656 127.070312 161.578125 109.058594 C 161.578125 109.058594 163.394531 114.042969 168.378906 114.382812 C 168.378906 114.382812 168.152344 106.679688 162.714844 102.941406 Z M 175.289062 90.308594 C 175.289062 90.308594 164.242188 92.234375 164.414062 83.113281 C 164.414062 83.113281 172.0625 80.710938 175.289062 90.308594 Z M 170.53125 72.578125 C 171.277344 70.996094 182.328125 60.414062 186.199219 56.734375 C 186.574219 56.378906 187.050781 56.203125 187.527344 56.203125 C 188.003906 56.203125 188.484375 56.378906 188.859375 56.734375 C 192.730469 60.414062 203.78125 70.996094 204.527344 72.578125 C 205.433594 74.507812 194.328125 82.550781 194.101562 81.753906 C 193.875 80.964844 195.234375 72.695312 193.304688 73.375 C 192.527344 73.648438 191.429688 76.914062 190.398438 80.703125 C 190.003906 82.167969 188.765625 82.902344 187.527344 82.902344 C 186.292969 82.902344 185.054688 82.167969 184.65625 80.703125 C 183.628906 76.914062 182.53125 73.648438 181.75 73.375 C 179.824219 72.695312 181.183594 80.964844 180.957031 81.753906 C 180.730469 82.550781 169.625 74.507812 170.53125 72.578125 Z M 212.625 83.113281 C 212.792969 92.234375 201.742188 90.308594 201.742188 90.308594 C 204.976562 80.710938 212.625 83.113281 212.625 83.113281 Z M 185.804688 149.785156 C 186.347656 150.003906 186.9375 150.109375 187.527344 150.109375 C 188.121094 150.109375 188.707031 150.003906 189.253906 149.785156 C 212 140.671875 229.214844 110.625 219.9375 84.652344 C 217.878906 78.882812 215.214844 73.9375 212.300781 69.71875 C 208.992188 65.804688 205.460938 61.878906 202.136719 58.289062 C 202.191406 58.316406 202.246094 58.347656 202.300781 58.375 C 205.925781 60.210938 209.257812 62.160156 210.980469 63.832031 C 215.976562 68.675781 224.230469 84.628906 224.230469 84.628906 C 224.230469 84.628906 224.230469 84.4375 224.082031 82.488281 C 223.996094 81.367188 223.859375 79.667969 223.648438 77.078125 C 223.066406 69.988281 217.953125 58.605469 217.953125 58.605469 L 222.5 61.390625 C 222.5 61.390625 221.871094 59.394531 220.902344 56.890625 C 219.707031 53.785156 218 49.894531 216.328125 48.027344 C 215.734375 47.371094 214.722656 46.414062 213.480469 45.308594 C 208.40625 40.792969 199.476562 33.738281 199.476562 33.738281 C 199.476562 33.738281 199.476562 33.738281 205.519531 35.714844 C 211.5625 37.691406 218.769531 44.921875 218.769531 44.921875 C 218.769531 44.921875 218.652344 44.195312 214.464844 38.152344 C 213.832031 37.238281 212.765625 36.089844 211.421875 34.808594 C 203.898438 27.648438 187.527344 16.195312 187.527344 16.195312 L 187.527344 48.5625 C 187.527344 48.5625 183.738281 50.082031 178.597656 53.710938 C 171.136719 58.976562 160.824219 68.6875 155.121094 84.652344 C 145.84375 110.625 163.054688 140.671875 185.804688 149.785156 Z M 272.320312 318.265625 C 271.023438 319.265625 269.703125 320.234375 268.371094 321.1875 L 268.191406 302.476562 C 275.097656 302.574219 285.015625 300.375 292.359375 298.210938 C 286.796875 305.765625 279.90625 312.425781 272.320312 318.265625 Z M 104.902344 319.894531 C 104.605469 319.679688 104.316406 319.453125 104.019531 319.234375 C 102.871094 318.367188 101.726562 317.488281 100.609375 316.589844 C 100.363281 316.394531 100.121094 316.1875 99.878906 315.988281 C 99.425781 315.621094 98.96875 315.25 98.519531 314.875 C 98.296875 314.6875 98.082031 314.492188 97.863281 314.304688 C 97.394531 313.90625 96.929688 313.515625 96.472656 313.109375 C 96.257812 312.917969 96.042969 312.71875 95.828125 312.523438 C 95.375 312.121094 94.921875 311.714844 94.476562 311.300781 C 94.257812 311.097656 94.046875 310.890625 93.828125 310.6875 C 93.394531 310.273438 92.953125 309.867188 92.527344 309.449219 C 92.480469 309.402344 92.4375 309.359375 92.394531 309.316406 C 91.800781 308.734375 91.210938 308.144531 90.632812 307.550781 C 90.386719 307.296875 90.148438 307.035156 89.90625 306.78125 C 89.535156 306.390625 89.15625 306.003906 88.792969 305.605469 C 88.714844 305.519531 88.636719 305.429688 88.5625 305.347656 C 87.4375 304.113281 86.34375 302.859375 85.292969 301.574219 C 85.289062 301.570312 85.289062 301.5625 85.285156 301.5625 C 85.023438 301.242188 84.773438 300.917969 84.519531 300.59375 C 93.265625 302.855469 101.183594 300.515625 106.867188 302.476562 L 106.6875 321.1875 C 106.289062 320.902344 105.894531 320.617188 105.5 320.328125 C 105.300781 320.183594 105.101562 320.042969 104.902344 319.894531 Z M 58.773438 251.886719 C 59.570312 254.210938 60.578125 256.464844 61.78125 258.601562 L 63.15625 260.863281 L 64.6875 263.015625 C 65.246094 263.695312 65.765625 264.410156 66.40625 265.019531 C 66.851562 265.386719 67.332031 265.722656 67.863281 265.996094 C 68.15625 266.152344 68.460938 266.292969 68.796875 266.398438 C 68.640625 265.390625 68.289062 264.597656 67.875 263.859375 C 67.550781 263.191406 67.132812 262.601562 66.722656 262.003906 C 66.664062 261.914062 66.605469 261.824219 66.546875 261.730469 L 65.285156 259.574219 L 64.148438 257.363281 C 63.511719 256.039062 62.953125 254.683594 62.445312 253.308594 C 62.523438 253.390625 62.59375 253.480469 62.679688 253.558594 C 62.910156 252.488281 62.878906 251.535156 62.769531 250.609375 C 62.703125 249.667969 62.476562 248.777344 62.304688 247.871094 L 61.914062 245.136719 L 61.679688 242.386719 C 61.65625 241.46875 61.609375 240.550781 61.5625 239.632812 L 61.5625 239.34375 L 61.574219 236.886719 L 61.734375 234.140625 L 62 231.40625 C 62.464844 227.773438 63.269531 224.183594 64.464844 220.726562 L 65.058594 219.144531 C 72.371094 209.847656 82.289062 205.527344 82.289062 205.527344 C 68.976562 203.015625 57.925781 208.316406 57.925781 208.316406 C 57.816406 207.53125 57.742188 206.734375 57.691406 205.921875 C 57.996094 205.097656 58.292969 204.273438 58.570312 203.441406 L 59.746094 200.183594 C 61.355469 195.859375 63.167969 191.613281 65.132812 187.4375 C 66.132812 185.359375 67.15625 183.292969 68.199219 181.230469 L 69.816406 178.167969 C 70.378906 177.160156 70.945312 176.152344 71.484375 175.128906 L 73.199219 172.117188 L 74.984375 169.140625 C 75.496094 168.332031 76.007812 167.535156 76.476562 166.699219 C 77.140625 165.507812 77.710938 164.238281 78.015625 162.769531 C 78.003906 162.777344 77.992188 162.789062 77.980469 162.792969 C 76.894531 163.433594 76.027344 164.238281 75.226562 165.09375 C 74.445312 165.976562 73.796875 166.960938 73.105469 167.910156 L 71.121094 170.816406 L 69.199219 173.773438 C 68.574219 174.769531 67.96875 175.777344 67.367188 176.789062 L 65.621094 179.851562 L 63.945312 182.957031 L 62.375 186.121094 C 60.90625 189.144531 59.558594 192.230469 58.308594 195.355469 C 61.695312 174.003906 76.339844 149.6875 76.339844 149.6875 C 71.539062 151.175781 66.488281 157.476562 62.890625 162.882812 L 63.886719 161.101562 L 65.234375 158.78125 L 66.648438 156.507812 C 67.144531 155.761719 67.640625 155.019531 68.121094 154.257812 L 69.636719 152.039062 L 71.226562 149.863281 C 71.769531 149.152344 72.355469 148.476562 72.820312 147.683594 C 73.296875 146.910156 73.714844 146.078125 73.9375 145.046875 C 72.941406 145.363281 72.140625 145.878906 71.40625 146.457031 C 70.699219 147.058594 70.113281 147.769531 69.484375 148.445312 L 67.6875 150.546875 L 65.957031 152.707031 C 65.398438 153.4375 64.855469 154.1875 64.316406 154.9375 L 62.757812 157.230469 L 61.277344 159.570312 L 59.898438 161.980469 C 59.300781 163.050781 58.742188 164.140625 58.195312 165.242188 C 59.402344 152.398438 65.863281 122.957031 99.5625 117.964844 C 129.734375 113.5 153.179688 146.226562 164.636719 166.503906 C 168.109375 172.65625 173.589844 177.296875 180.023438 179.792969 L 180.023438 209.425781 C 177.660156 208.796875 175.296875 208.171875 172.933594 207.535156 C 172.648438 207.457031 172.339844 207.460938 172.039062 207.574219 L 172.027344 207.578125 C 170.625 208.085938 169.355469 208.917969 168.285156 209.925781 C 167.21875 209.371094 166.089844 209.246094 164.988281 208.941406 C 163.433594 208.582031 161.875 208.257812 160.3125 207.976562 C 157.179688 207.433594 154.035156 206.992188 150.890625 206.523438 L 150.839844 206.511719 C 150.660156 206.488281 150.46875 206.5 150.28125 206.554688 C 149.671875 206.734375 149.316406 206.910156 148.875 207.121094 C 148.453125 207.320312 148.082031 207.570312 147.683594 207.796875 L 146.59375 208.585938 C 146.253906 208.867188 145.929688 209.171875 145.601562 209.46875 C 145.355469 209.703125 145.132812 209.949219 144.902344 210.195312 C 144.640625 210.070312 144.382812 209.957031 144.117188 209.875 C 146.644531 204.46875 149.96875 200.46875 149.96875 200.46875 L 142.066406 202.09375 C 142.066406 202.09375 142.066406 202.09375 141.578125 192.800781 C 141.175781 185.066406 134.945312 172.183594 132.863281 168.078125 C 132.84375 166.589844 132.796875 165.097656 132.695312 163.574219 C 132.664062 163.023438 132.59375 162.4375 132.535156 161.855469 C 132.453125 161.265625 132.335938 160.558594 132.136719 160.023438 C 131.964844 159.449219 131.78125 158.875 131.539062 158.351562 C 131.308594 157.816406 131.082031 157.277344 130.816406 156.777344 C 129.792969 154.730469 128.644531 152.804688 127.355469 150.984375 C 126.972656 150.433594 126.570312 149.898438 126.175781 149.359375 C 125.265625 148.105469 124.332031 146.871094 123.367188 145.667969 C 122.671875 144.808594 121.929688 143.988281 121.117188 143.226562 C 120.316406 142.457031 119.460938 141.730469 118.480469 141.121094 C 119.820312 144.320312 121.796875 146.972656 123.609375 149.71875 C 124.175781 150.578125 124.730469 151.449219 125.242188 152.347656 C 126.335938 154.199219 127.398438 156.066406 128.242188 157.980469 C 128.472656 158.453125 128.644531 158.933594 128.828125 159.414062 C 129.027344 159.894531 129.15625 160.371094 129.296875 160.84375 C 129.464844 161.34375 129.507812 161.722656 129.570312 162.214844 C 129.597656 162.511719 129.625 162.808594 129.648438 163.105469 C 129.015625 161.800781 128.253906 160.558594 127.386719 159.40625 L 126.585938 158.40625 L 125.726562 157.457031 C 125.417969 157.160156 125.15625 156.824219 124.769531 156.601562 C 124.363281 156.394531 123.898438 156.246094 123.242188 156.308594 C 123.039062 157.609375 123.503906 158.207031 123.953125 158.855469 C 124.371094 159.523438 124.769531 160.195312 125.152344 160.871094 C 125.910156 162.230469 126.570312 163.628906 127.1875 165.042969 C 127.769531 166.46875 128.273438 167.929688 128.636719 169.425781 L 128.886719 170.554688 C 128.957031 170.933594 129.042969 171.308594 129.164062 171.679688 C 129.261719 172.054688 129.417969 172.425781 129.585938 172.796875 C 129.664062 172.953125 129.703125 173.109375 129.796875 173.261719 C 129.785156 174.433594 129.769531 175.605469 129.753906 176.773438 C 129.742188 177.476562 129.722656 178.175781 129.707031 178.878906 C 119.515625 176.265625 105.808594 180.28125 105.808594 180.28125 C 112.414062 183.070312 128.511719 208.046875 128.511719 208.046875 C 112.871094 207.726562 94.417969 238.578125 94.417969 238.578125 C 94.417969 238.578125 94.417969 238.578125 107.902344 235.972656 C 118.300781 233.964844 124.902344 235.054688 127.386719 235.65625 C 127.324219 236.914062 127.261719 238.171875 127.199219 239.429688 C 126.429688 239.332031 125.660156 239.253906 124.890625 239.199219 C 122.34375 239.011719 119.78125 239.105469 117.253906 239.410156 C 114.730469 239.71875 112.234375 240.25 109.8125 241.03125 C 107.394531 241.789062 105.054688 242.96875 103.296875 244.910156 C 105.855469 244.457031 108.113281 243.757812 110.425781 243.109375 C 112.742188 242.484375 115.117188 242.089844 117.503906 241.910156 C 119.496094 241.753906 121.5 241.773438 123.488281 241.90625 C 122.707031 242.125 121.929688 242.355469 121.160156 242.605469 C 117.671875 243.746094 114.320312 245.296875 111.164062 247.164062 C 108.023438 249.042969 105.039062 251.222656 102.402344 253.777344 C 101.757812 254.425781 101.128906 255.09375 100.503906 255.761719 C 99.921875 256.472656 99.34375 257.183594 98.785156 257.90625 C 98.257812 258.652344 97.746094 259.414062 97.242188 260.171875 C 96.808594 260.980469 96.464844 261.859375 96.484375 262.949219 C 97.542969 262.59375 98.242188 262.035156 98.847656 261.398438 C 99.460938 260.773438 100.074219 260.152344 100.667969 259.523438 C 101.304688 258.929688 101.921875 258.324219 102.539062 257.71875 C 103.183594 257.140625 103.824219 256.5625 104.441406 255.964844 C 107.011719 253.667969 109.769531 251.570312 112.742188 249.820312 C 113.636719 249.289062 114.554688 248.796875 115.480469 248.328125 C 114.851562 248.910156 114.25 249.511719 113.675781 250.140625 C 112.597656 251.335938 111.609375 252.613281 110.746094 253.960938 C 109.863281 255.285156 109.039062 256.714844 109.261719 258.574219 C 110.878906 257.675781 111.660156 256.460938 112.578125 255.277344 C 113.511719 254.117188 114.519531 253.023438 115.589844 252.003906 C 117.734375 249.96875 120.140625 248.242188 122.71875 246.855469 C 125.308594 245.488281 128.101562 244.492188 130.976562 243.9375 C 131.179688 243.894531 131.386719 243.863281 131.585938 243.828125 L 137.894531 243.753906 C 140.949219 243.714844 143.996094 243.929688 147.023438 244.359375 C 150.042969 244.785156 153.035156 245.457031 155.953125 246.363281 L 163.933594 248.949219 C 164.027344 249.109375 164.15625 249.25 164.316406 249.367188 L 164.332031 249.378906 C 171.933594 254.886719 179.652344 260.234375 187.527344 265.363281 C 188.578125 266.046875 189.621094 266.742188 190.675781 267.414062 C 198.523438 272.429688 206.523438 277.226562 214.777344 281.585938 C 215.121094 281.898438 215.460938 282.214844 215.808594 282.519531 C 216.691406 283.292969 217.570312 284.078125 218.558594 284.722656 C 219.042969 285.050781 219.570312 285.328125 220.105469 285.589844 C 220.652344 285.800781 221.066406 286.210938 222.113281 285.722656 C 222.359375 285.957031 222.617188 286.1875 222.894531 286.390625 C 223.238281 286.640625 223.613281 286.84375 223.996094 287.039062 C 222.835938 287.546875 221.742188 288.15625 220.566406 288.644531 C 218.460938 289.691406 216.246094 290.515625 214.09375 291.457031 C 209.726562 293.203125 205.269531 294.71875 200.730469 296 C 196.390625 297.179688 191.976562 298.113281 187.527344 298.875 C 187.316406 298.910156 187.109375 298.949219 186.894531 298.984375 C 182.226562 299.734375 177.519531 300.253906 172.800781 300.617188 C 163.347656 301.269531 153.84375 301.363281 144.359375 300.847656 C 139.613281 300.613281 134.871094 300.25 130.144531 299.734375 C 128.523438 299.546875 125.289062 299.171875 125.289062 299.171875 C 122.183594 298.832031 119.0625 298.566406 115.859375 298.613281 C 118.878906 299.933594 122.027344 300.695312 125.207031 301.257812 C 126.757812 301.527344 128.3125 301.753906 129.871094 301.964844 C 130.242188 302.015625 130.613281 302.0625 130.984375 302.109375 C 128.605469 302.078125 126.625 302.050781 125.175781 302.027344 C 123.445312 302 122.46875 301.980469 122.46875 301.980469 C 122.46875 301.980469 123.414062 302.371094 125.136719 303.050781 C 130.003906 304.964844 141.109375 309.167969 154.835938 313.328125 C 163.5 315.949219 171.933594 317.472656 180.023438 318.175781 L 180.023438 340.101562 C 176.640625 339.871094 173.269531 339.539062 169.910156 339.09375 C 163.132812 338.207031 156.4375 336.734375 149.863281 334.867188 C 143.292969 332.972656 136.863281 330.578125 130.683594 327.648438 C 128.523438 326.628906 126.40625 325.523438 124.304688 324.390625 C 123.394531 323.902344 122.484375 323.410156 121.578125 322.914062 C 119.351562 321.683594 117.128906 320.425781 114.910156 319.140625 L 115.136719 295.59375 C 77.664062 297.167969 77.457031 266.582031 77.472656 264.988281 C 77.472656 264.984375 77.472656 264.988281 77.472656 264.984375 C 77.472656 264.945312 77.472656 264.917969 77.472656 264.917969 C 73.792969 273.566406 77.757812 287.785156 77.757812 287.785156 C 77.757812 287.785156 76.449219 286.558594 74.5 284.230469 C 70.015625 278.871094 62.117188 267.648438 58.773438 251.886719 Z M 50.292969 103.035156 C 50.292969 103.035156 51.09375 102.441406 52.613281 101.382812 C 61.296875 95.351562 93.40625 74.214844 133.355469 62.117188 C 130.117188 73.015625 125.753906 87.296875 121.707031 100.386719 C 120.789062 103.351562 120.714844 106.507812 121.5 109.515625 L 124.453125 111.785156 C 118.785156 109.539062 112.761719 108.257812 106.398438 108.257812 C 104.105469 108.257812 101.792969 108.429688 99.507812 108.773438 C 78.585938 111.917969 63.449219 123.964844 55.734375 143.605469 C 54.019531 147.972656 52.871094 152.253906 52.101562 156.109375 C 50.328125 126.371094 50.292969 103.902344 50.292969 103.058594 C 50.292969 103.042969 50.292969 103.035156 50.292969 103.035156 Z M 145.492188 46.976562 C 146.039062 44.597656 148.285156 40.929688 151.542969 36.773438 C 160.382812 25.484375 176.761719 10.53125 187.527344 7.550781 C 198.292969 10.53125 214.675781 25.484375 223.515625 36.773438 C 226.773438 40.929688 229.015625 44.597656 229.566406 46.976562 C 229.660156 47.382812 229.78125 47.886719 229.933594 48.457031 C 230.582031 50.960938 231.71875 54.953125 233.109375 59.695312 C 237.339844 74.117188 243.90625 95.417969 246.132812 102.613281 C 246.636719 104.242188 246.671875 105.964844 246.246094 107.613281 C 246.019531 107.789062 245.800781 107.96875 245.574219 108.140625 C 245.402344 107.566406 245.21875 106.992188 245.042969 106.417969 C 244.539062 104.804688 244 103.203125 243.449219 101.609375 C 243.164062 100.796875 242.882812 99.980469 242.582031 99.171875 C 241.722656 96.769531 240.738281 94.414062 239.683594 92.089844 C 239.15625 90.929688 238.601562 89.777344 238.035156 88.636719 C 237.738281 88.070312 237.496094 87.484375 237.101562 86.960938 C 236.699219 86.441406 236.21875 85.960938 235.476562 85.597656 C 235.046875 87.175781 235.511719 88.339844 235.953125 89.519531 L 237.207031 93.085938 L 239.707031 100.203125 C 240.375 102.140625 241.035156 104.078125 241.671875 106.023438 C 241.816406 106.46875 241.964844 106.90625 242.105469 107.347656 C 242.414062 108.289062 242.683594 109.234375 243.011719 110.171875 C 242.347656 110.707031 241.6875 111.25 241.03125 111.796875 C 240.984375 111.539062 240.945312 111.28125 240.894531 111.023438 C 240.644531 109.785156 240.316406 108.566406 239.914062 107.367188 C 239.90625 107.339844 239.898438 107.3125 239.886719 107.285156 C 239.679688 106.671875 239.453125 106.070312 239.210938 105.46875 C 239.074219 105.171875 239 104.863281 238.765625 104.59375 C 238.519531 104.332031 238.195312 104.089844 237.597656 103.941406 C 236.785156 104.839844 236.917969 105.441406 237.03125 106.058594 L 237.289062 107.914062 C 237.355469 108.351562 237.429688 108.777344 237.5 109.214844 C 237.617188 110.007812 237.734375 110.800781 237.875 111.585938 C 238.019531 112.4375 238.15625 113.289062 238.285156 114.144531 C 237.816406 114.5625 237.347656 114.984375 236.878906 115.40625 C 236.699219 114.644531 236.464844 113.894531 236.171875 113.171875 C 235.96875 112.675781 235.742188 112.1875 235.492188 111.71875 C 235.363281 111.496094 235.277344 111.261719 235.066406 111.074219 C 235.054688 111.0625 235.050781 111.050781 235.039062 111.042969 C 234.789062 110.859375 234.460938 110.707031 233.878906 110.679688 C 233.160156 111.496094 233.242188 111.941406 233.34375 112.386719 C 233.347656 112.414062 233.355469 112.441406 233.359375 112.46875 L 233.601562 113.898438 L 234.015625 116.730469 C 234.070312 117.121094 234.113281 117.519531 234.15625 117.914062 C 233.300781 118.714844 232.457031 119.53125 231.625 120.355469 C 231.609375 120.261719 231.601562 120.167969 231.589844 120.074219 C 231.449219 119.164062 231.226562 118.269531 230.933594 117.394531 C 230.78125 116.960938 230.617188 116.53125 230.429688 116.109375 C 230.324219 115.902344 230.277344 115.675781 230.074219 115.496094 C 229.996094 115.433594 229.902344 115.375 229.792969 115.320312 C 229.597656 115.222656 229.347656 115.144531 228.996094 115.097656 C 228.117188 115.800781 228.1875 116.214844 228.234375 116.644531 C 228.238281 116.683594 228.242188 116.722656 228.242188 116.761719 C 228.261719 117.15625 228.285156 117.550781 228.316406 117.9375 C 228.375 118.792969 228.445312 119.640625 228.542969 120.480469 C 228.636719 121.316406 228.726562 122.160156 228.785156 123.003906 C 228.789062 123.074219 228.792969 123.144531 228.796875 123.214844 C 221.242188 131.082031 214.546875 139.75 208.941406 149.148438 C 202.335938 160.222656 194.34375 168.246094 191.042969 171.332031 C 190.066406 172.242188 189.492188 172.726562 189.492188 172.726562 C 189.492188 172.726562 189.171875 172.496094 188.601562 172.058594 C 188.308594 171.835938 187.949219 171.554688 187.527344 171.222656 C 183.300781 167.863281 173.113281 159.082031 165.523438 147.0625 C 158.535156 135.988281 149.976562 126.023438 140.320312 117.207031 C 140.054688 116.101562 139.8125 114.996094 139.597656 113.882812 C 139.292969 112.167969 138.988281 110.453125 138.734375 108.722656 L 138.371094 106.117188 C 138.285156 105.238281 138.238281 104.378906 137.207031 103.480469 C 136.675781 103.921875 136.433594 104.375 136.273438 104.832031 C 136.132812 105.285156 136.152344 105.742188 136.113281 106.199219 L 136.066406 107.570312 L 136.074219 108.945312 C 136.109375 110.578125 136.242188 112.210938 136.5 113.828125 C 135.726562 113.164062 134.941406 112.507812 134.15625 111.859375 C 134.023438 111.109375 133.910156 110.363281 133.828125 109.609375 C 133.628906 107.414062 133.617188 105.195312 133.855469 102.988281 L 134.078125 101.335938 L 134.386719 99.6875 C 134.515625 99.144531 134.699219 98.617188 134.730469 98.035156 C 134.789062 97.457031 134.777344 96.847656 134.507812 96.09375 C 133.804688 96.417969 133.351562 96.886719 132.972656 97.386719 C 132.636719 97.910156 132.453125 98.488281 132.21875 99.050781 L 131.652344 100.789062 L 131.21875 102.570312 C 130.777344 104.714844 130.621094 106.925781 130.746094 109.117188 C 130.316406 108.78125 129.886719 108.441406 129.453125 108.109375 L 128.8125 107.613281 C 128.382812 105.964844 128.417969 104.242188 128.921875 102.613281 C 131.148438 95.417969 137.71875 74.117188 141.949219 59.695312 C 143.339844 54.957031 144.476562 50.960938 145.125 48.457031 C 145.273438 47.886719 145.398438 47.382812 145.492188 46.976562 Z M 147.429688 241.679688 C 145.699219 241.398438 143.949219 241.207031 142.199219 241.085938 L 141.957031 238.636719 C 142.046875 238.691406 142.128906 238.75 142.21875 238.796875 C 143.222656 239.375 144.316406 239.773438 145.402344 240.15625 C 147.589844 240.90625 149.839844 241.480469 152.136719 241.792969 C 153.273438 241.957031 154.441406 242.066406 155.574219 242.097656 L 158.851562 242.183594 C 159.90625 242.238281 160.921875 242.339844 161.902344 242.570312 C 162.25 242.652344 162.585938 242.757812 162.929688 242.851562 C 163.058594 243.988281 163.214844 245.128906 163.386719 246.269531 L 156.726562 243.964844 C 153.695312 242.957031 150.585938 242.195312 147.429688 241.679688 Z M 163.097656 221.066406 C 162.152344 220.691406 161.199219 220.332031 160.234375 220 C 158.246094 219.320312 156.230469 218.722656 154.175781 218.257812 C 152.136719 217.765625 150.070312 217.375 147.996094 217.027344 C 147.921875 217.015625 147.84375 217.003906 147.769531 216.992188 C 146.808594 216.84375 145.847656 216.671875 144.867188 216.636719 C 144.683594 216.632812 144.496094 216.636719 144.3125 216.644531 C 144.546875 216.121094 144.835938 215.632812 145.109375 215.136719 C 145.324219 214.738281 145.566406 214.363281 145.816406 213.996094 C 145.882812 214.015625 145.953125 214.035156 146.019531 214.058594 C 146.460938 214.1875 146.90625 214.304688 147.347656 214.367188 C 148.230469 214.503906 149.117188 214.515625 150 214.585938 C 151.773438 214.707031 153.53125 214.902344 155.289062 215.117188 C 157.039062 215.359375 158.785156 215.617188 160.523438 215.910156 C 161.386719 216.078125 162.257812 216.21875 163.113281 216.417969 C 163.496094 216.496094 163.863281 216.589844 164.261719 216.628906 C 164.085938 217.128906 163.929688 217.632812 163.785156 218.140625 C 163.511719 219.109375 163.28125 220.085938 163.097656 221.066406 Z M 162.289062 234.339844 C 162.15625 234.308594 162.023438 234.277344 161.890625 234.25 C 160.804688 233.976562 159.71875 233.714844 158.632812 233.464844 C 156.453125 232.972656 154.273438 232.511719 152.078125 232.128906 C 149.890625 231.714844 147.679688 231.339844 145.5 230.960938 C 145.132812 230.898438 144.792969 230.820312 144.445312 230.746094 C 143.78125 230.601562 143.140625 230.445312 142.542969 230.285156 C 142.238281 230.199219 141.941406 230.117188 141.648438 230.027344 L 141.707031 228.203125 C 141.707031 228.199219 141.707031 228.195312 141.707031 228.191406 C 141.75 227.429688 141.867188 226.675781 141.941406 225.917969 C 142.15625 226.011719 142.367188 226.101562 142.585938 226.183594 C 142.78125 226.257812 142.976562 226.328125 143.175781 226.386719 C 144.109375 226.671875 145.074219 226.796875 146.027344 226.964844 C 147.945312 227.277344 149.863281 227.554688 151.796875 227.757812 C 153.722656 227.984375 155.664062 228.09375 157.601562 228.132812 C 158.574219 228.152344 159.546875 228.148438 160.515625 228.125 C 161.003906 228.101562 161.484375 228.136719 161.976562 228.007812 C 162.09375 227.972656 162.210938 227.933594 162.332031 227.886719 C 162.25 229.535156 162.222656 231.179688 162.246094 232.820312 C 162.257812 233.328125 162.269531 233.832031 162.289062 234.339844 Z M 141.847656 235.707031 C 141.808594 235.703125 141.773438 235.691406 141.738281 235.683594 C 141.699219 234.808594 141.671875 233.929688 141.625 233.054688 C 142.738281 233.578125 143.882812 233.785156 144.953125 233.992188 C 147.164062 234.386719 149.347656 234.777344 151.550781 235.136719 C 153.746094 235.519531 155.957031 235.824219 158.171875 236.101562 C 159.277344 236.234375 160.390625 236.359375 161.5 236.472656 C 161.796875 236.507812 162.09375 236.546875 162.390625 236.5625 C 162.414062 236.957031 162.429688 237.355469 162.457031 237.746094 C 162.519531 238.65625 162.59375 239.558594 162.679688 240.457031 C 162.648438 240.449219 162.621094 240.4375 162.59375 240.425781 C 161.460938 239.972656 160.277344 239.703125 159.125 239.527344 C 157.976562 239.347656 156.84375 239.261719 155.761719 239.160156 C 154.683594 239.054688 153.640625 238.929688 152.585938 238.769531 C 150.492188 238.433594 148.417969 237.929688 146.410156 237.242188 C 145.398438 236.910156 144.425781 236.484375 143.410156 236.148438 C 142.90625 235.980469 142.378906 235.84375 141.847656 235.707031 Z M 147.484375 220.070312 C 149.5 220.410156 151.503906 220.816406 153.507812 221.238281 L 159.503906 222.566406 L 162.507812 223.253906 C 162.585938 223.269531 162.660156 223.292969 162.734375 223.308594 C 162.601562 224.308594 162.503906 225.304688 162.421875 226.296875 C 161.835938 226 161.242188 225.941406 160.644531 225.871094 L 157.8125 225.472656 C 155.925781 225.214844 154.042969 224.945312 152.15625 224.722656 C 150.273438 224.46875 148.394531 224.21875 146.515625 223.921875 C 145.621094 223.789062 144.734375 223.609375 143.824219 223.539062 C 143.78125 223.539062 143.738281 223.53125 143.691406 223.527344 C 143.222656 223.492188 142.746094 223.507812 142.265625 223.539062 L 142.683594 221.382812 C 142.871094 220.644531 143.113281 219.929688 143.316406 219.207031 C 143.324219 219.191406 143.328125 219.179688 143.328125 219.167969 C 143.707031 219.300781 144.085938 219.425781 144.464844 219.519531 C 144.921875 219.632812 145.378906 219.71875 145.835938 219.796875 C 146.386719 219.890625 146.9375 219.972656 147.484375 220.070312 Z M 166.167969 212.554688 C 165.707031 213.289062 165.304688 214.050781 164.957031 214.828125 C 164.59375 214.574219 164.191406 214.40625 163.792969 214.265625 C 162.925781 213.894531 162.042969 213.605469 161.15625 213.316406 C 159.371094 212.78125 157.554688 212.347656 155.71875 212.089844 C 153.886719 211.808594 152.046875 211.632812 150.203125 211.511719 C 149.484375 211.472656 148.761719 211.414062 148.039062 211.433594 C 148.199219 211.285156 148.359375 211.140625 148.523438 211 L 149.367188 210.386719 C 149.660156 210.222656 149.953125 210.023438 150.25 209.882812 C 150.429688 209.792969 150.644531 209.699219 150.816406 209.628906 C 152.070312 209.808594 153.324219 209.996094 154.578125 210.179688 C 156.34375 210.4375 158.109375 210.683594 159.878906 210.902344 C 161.460938 211.085938 163.042969 211.222656 164.636719 211.328125 C 165.40625 211.347656 166.164062 211.449219 166.9375 211.445312 C 166.667969 211.808594 166.40625 212.175781 166.167969 212.554688 Z M 142.960938 212.707031 C 142.933594 212.75 142.90625 212.796875 142.882812 212.839844 C 142.894531 212.792969 142.914062 212.75 142.929688 212.703125 C 142.941406 212.703125 142.953125 212.707031 142.960938 212.707031 Z M 187.527344 343.46875 C 188.472656 343.484375 189.414062 343.496094 190.359375 343.496094 C 204.292969 343.480469 218.277344 341.6875 231.6875 337.746094 C 238.308594 335.777344 244.804688 333.335938 250.976562 330.214844 C 251.046875 330.179688 251.121094 330.144531 251.191406 330.109375 C 252.113281 329.640625 253.023438 329.148438 253.929688 328.644531 C 253.902344 328.835938 253.882812 329.027344 253.855469 329.21875 C 252.992188 329.757812 252.035156 330.335938 251.007812 330.941406 C 251.007812 330.941406 221.558594 349.890625 187.527344 349.890625 C 153.5 349.890625 124.050781 330.941406 124.050781 330.941406 C 118.097656 327.445312 114.851562 324.871094 114.851562 324.871094 L 114.898438 320.101562 C 115.390625 320.546875 115.890625 320.980469 116.402344 321.394531 C 117.75 322.503906 119.164062 323.535156 120.613281 324.5 C 121.789062 325.285156 122.992188 326.015625 124.214844 326.722656 C 126.007812 327.765625 127.84375 328.738281 129.699219 329.667969 C 135.9375 332.777344 142.441406 335.351562 149.101562 337.417969 C 161.539062 341.226562 174.527344 343.21875 187.527344 343.46875 Z M 257.277344 326.691406 C 257.410156 326.613281 257.542969 326.535156 257.675781 326.453125 L 257.628906 326.742188 C 257.5 326.828125 257.386719 326.910156 257.25 327.003906 C 257.261719 326.898438 257.265625 326.796875 257.277344 326.691406 Z M 197.5625 318.472656 C 219.929688 317.3125 238.449219 310.550781 250.003906 305.113281 C 254.382812 303.050781 257.757812 301.183594 259.960938 299.886719 L 260.035156 307.375 L 259.570312 305.652344 C 259.355469 304.992188 259.199219 304.316406 258.882812 303.6875 C 258.53125 303.070312 258.105469 302.476562 257.40625 301.980469 C 256.8125 303.582031 257.117188 304.851562 257.371094 306.160156 L 257.667969 308.128906 L 257.914062 310.105469 C 258.203125 312.734375 258.324219 315.375 258.332031 318.011719 C 258.320312 319.789062 258.230469 321.570312 258.0625 323.34375 C 257.867188 323.449219 257.675781 323.558594 257.480469 323.664062 C 257.570312 321.730469 257.511719 319.796875 257.332031 317.875 L 257.160156 316.339844 L 256.933594 314.820312 C 256.832031 314.3125 256.792969 313.804688 256.585938 313.316406 C 256.363281 312.824219 256.058594 312.347656 255.472656 311.921875 C 254.578125 313.054688 254.648438 314.023438 254.683594 315.015625 L 254.660156 317.980469 C 254.625 319.949219 254.53125 321.910156 254.417969 323.867188 C 254.382812 324.367188 254.332031 324.863281 254.285156 325.363281 C 253.152344 325.949219 252.007812 326.511719 250.855469 327.058594 C 250.542969 327.207031 250.230469 327.359375 249.914062 327.507812 C 243.75 330.417969 237.359375 332.84375 230.816406 334.796875 C 220.019531 337.980469 208.824219 339.742188 197.5625 340.28125 Z M 317.003906 247.875 C 316.929688 247.246094 316.84375 246.621094 316.742188 245.996094 L 316.042969 242.304688 L 315.050781 238.683594 L 314.113281 236.007812 L 313.808594 235.140625 C 313.316406 233.992188 312.820312 232.84375 312.300781 231.707031 L 310.527344 228.402344 L 308.519531 225.246094 C 307.769531 224.253906 307.054688 223.222656 306.214844 222.304688 C 305.296875 221.445312 304.3125 220.644531 303.140625 220.058594 C 303.523438 221.347656 304.09375 222.421875 304.730469 223.4375 C 305.296875 224.507812 305.988281 225.472656 306.636719 226.46875 L 308.378906 229.582031 L 309.882812 232.8125 C 310.296875 233.925781 310.738281 235.023438 311.171875 236.125 L 312.25 239.511719 L 312.921875 242.285156 L 313.085938 242.964844 L 313.722656 246.453125 C 314.398438 251.109375 314.480469 255.851562 313.886719 260.511719 C 313.847656 260.621094 313.8125 260.730469 313.773438 260.839844 C 313.808594 259.691406 313.804688 258.542969 313.765625 257.394531 L 313.558594 254.097656 L 313.117188 250.828125 L 312.484375 247.589844 C 312.367188 247.128906 312.242188 246.664062 312.121094 246.203125 C 311.964844 245.605469 311.8125 245 311.644531 244.402344 L 310.585938 241.285156 L 309.34375 238.246094 C 308.855469 237.261719 308.417969 236.253906 307.832031 235.328125 C 307.183594 234.433594 306.457031 233.578125 305.496094 232.890625 C 305.535156 234.097656 305.804688 235.140625 306.152344 236.144531 C 306.4375 237.167969 306.875 238.121094 307.261719 239.09375 L 308.261719 242.074219 L 309.078125 245.101562 C 309.28125 246.128906 309.507812 247.144531 309.734375 248.164062 L 310.230469 251.253906 L 310.46875 253.613281 L 310.542969 254.363281 L 310.710938 257.484375 C 310.804688 261.644531 310.453125 265.820312 309.601562 269.894531 L 309.320312 271.0625 C 306.226562 276.953125 302.921875 281.40625 300.558594 284.230469 C 298.609375 286.558594 297.300781 287.785156 297.300781 287.785156 C 297.300781 287.785156 301.15625 273.945312 297.722656 265.273438 C 297.660156 265.421875 297.597656 265.566406 297.53125 265.710938 C 297.1875 269.832031 294.589844 288.90625 276.03125 294.378906 C 276.039062 294.371094 276.050781 294.367188 276.0625 294.355469 C 277.195312 293.582031 278.257812 292.621094 278.890625 291.410156 C 277.882812 292.300781 276.710938 292.886719 275.535156 293.386719 C 274.34375 293.875 273.117188 294.226562 271.867188 294.496094 C 269.378906 295.035156 266.804688 295.25 264.226562 295.199219 C 259.273438 295.097656 254.351562 294.097656 249.523438 292.796875 C 249.308594 292.738281 249.09375 292.6875 248.882812 292.628906 C 240.085938 290.089844 231.542969 286.566406 223.273438 282.492188 C 222.210938 281.304688 221.253906 280.027344 220.371094 278.703125 C 219.507812 277.355469 218.6875 275.984375 217.949219 274.550781 C 217.585938 273.832031 217.234375 273.105469 216.894531 272.367188 C 216.585938 271.609375 216.335938 270.867188 215.125 270.304688 C 214.71875 270.835938 214.59375 271.320312 214.550781 271.78125 C 214.53125 272.238281 214.671875 272.652344 214.753906 273.085938 L 215.089844 274.355469 L 215.496094 275.605469 C 215.964844 276.917969 216.542969 278.191406 217.234375 279.402344 C 217.023438 279.296875 216.8125 279.1875 216.601562 279.074219 C 215.371094 277.925781 214.183594 276.742188 213.074219 275.515625 C 211.621094 273.863281 210.277344 272.148438 209.214844 270.273438 C 208.683594 269.335938 208.222656 268.363281 207.839844 267.355469 C 207.484375 266.320312 207.261719 265.339844 206.152344 264.28125 C 205.664062 264.890625 205.492188 265.53125 205.441406 266.15625 C 205.398438 266.785156 205.550781 267.382812 205.671875 267.984375 C 205.9375 269.179688 206.332031 270.347656 206.828125 271.464844 C 207.324219 272.589844 207.917969 273.660156 208.589844 274.671875 C 203.65625 271.867188 198.792969 268.925781 193.992188 265.886719 C 193.964844 265.832031 193.9375 265.78125 193.917969 265.726562 C 193.679688 265.226562 193.449219 264.730469 193.167969 264.273438 C 192.894531 263.8125 192.625 263.355469 192.324219 262.917969 C 192.027344 262.476562 191.769531 262.015625 191.488281 261.566406 C 190.40625 259.75 189.527344 257.832031 188.859375 255.851562 C 188.222656 253.890625 187.769531 251.875 187.527344 249.8125 C 187.527344 249.808594 187.527344 249.808594 187.527344 249.808594 C 187.523438 249.777344 187.519531 249.75 187.515625 249.722656 C 187.402344 248.671875 187.335938 247.613281 187.308594 246.542969 C 187.308594 246.324219 187.3125 246.105469 187.3125 245.886719 C 187.308594 245.035156 187.226562 244.175781 186.539062 243.175781 C 186.007812 243.589844 185.703125 244.054688 185.472656 244.539062 C 185.445312 244.597656 185.410156 244.65625 185.386719 244.71875 C 185.175781 245.269531 185.148438 245.847656 185.050781 246.414062 C 184.980469 246.988281 184.941406 247.5625 184.890625 248.140625 C 184.859375 248.71875 184.863281 249.300781 184.847656 249.882812 C 184.875 252.207031 185.222656 254.558594 185.949219 256.789062 C 186.363281 258.140625 186.910156 259.445312 187.527344 260.710938 C 187.527344 260.710938 187.527344 260.710938 187.527344 260.714844 C 187.777344 261.226562 188.039062 261.726562 188.3125 262.222656 C 188.050781 262.046875 187.789062 261.882812 187.527344 261.707031 C 180.453125 257.066406 173.496094 252.234375 166.632812 247.273438 C 166.097656 244.082031 165.71875 240.792969 165.492188 237.539062 C 165.402344 236.242188 165.347656 234.949219 165.308594 233.652344 C 165.25 231.484375 165.265625 229.316406 165.402344 227.171875 C 165.589844 224.277344 165.980469 221.394531 166.773438 218.699219 C 166.921875 218.203125 167.074219 217.710938 167.25 217.230469 C 168.308594 214.300781 170.089844 211.683594 172.679688 210.554688 C 177.625 211.855469 182.574219 213.128906 187.527344 214.386719 C 191.019531 215.277344 194.511719 216.160156 198.007812 217.027344 C 206.636719 219.179688 215.292969 221.226562 223.980469 223.152344 C 228.328125 224.113281 232.683594 225.039062 237.066406 225.878906 C 239.253906 226.300781 241.453125 226.6875 243.671875 227.035156 C 244.328125 227.136719 244.988281 227.230469 245.652344 227.320312 C 245.875 227.367188 246.105469 227.410156 246.332031 227.457031 C 246.425781 227.476562 246.523438 227.484375 246.625 227.480469 C 246.667969 227.476562 246.707031 227.464844 246.753906 227.460938 C 247.964844 227.605469 249.195312 227.710938 250.464844 227.722656 C 254.761719 227.726562 259.089844 228.53125 263.328125 229.628906 C 267.585938 230.722656 271.777344 232.140625 275.945312 233.726562 C 274.070312 232.507812 272.078125 231.476562 270.058594 230.523438 C 268.03125 229.570312 265.941406 228.742188 263.8125 228.011719 C 259.640625 226.632812 255.269531 225.644531 250.769531 225.5625 C 250.671875 225.5625 250.570312 225.554688 250.472656 225.554688 C 249.546875 225.53125 248.601562 225.445312 247.648438 225.332031 L 247.542969 223.328125 L 252.1875 211.492188 L 249.238281 213.097656 C 249.296875 212.964844 249.347656 212.832031 249.414062 212.703125 C 250.5625 210.347656 252.269531 208.210938 254.214844 206.332031 C 254.695312 205.875 255.195312 205.421875 255.703125 204.976562 C 257.277344 203.585938 258.945312 202.234375 260.605469 200.824219 C 261.707031 199.890625 262.796875 198.925781 263.839844 197.894531 C 264.355469 197.371094 264.898438 196.878906 265.320312 196.253906 C 265.726562 195.621094 266.054688 194.914062 266.132812 194.03125 C 264.417969 194.410156 263.433594 195.3125 262.34375 196.203125 C 262.144531 196.363281 261.933594 196.515625 261.730469 196.667969 C 260.820312 197.363281 259.894531 198.046875 258.957031 198.722656 C 257.835938 199.539062 256.691406 200.359375 255.5625 201.21875 C 261.671875 192.753906 269.605469 182.914062 275.171875 180.28125 C 275.171875 180.28125 252.007812 176.5 245.730469 183.71875 L 245.574219 183.304688 C 245.558594 182.867188 245.535156 182.429688 245.523438 181.992188 C 245.683594 181.777344 245.773438 181.546875 245.910156 181.328125 C 246.203125 180.828125 246.476562 180.335938 246.699219 179.828125 C 246.953125 179.324219 247.171875 178.816406 247.375 178.296875 L 248.046875 176.777344 C 248.722656 175.34375 249.492188 173.957031 250.335938 172.617188 C 250.675781 172.078125 251.023438 171.542969 251.386719 171.015625 C 252.675781 169.207031 254.0625 167.460938 255.585938 165.824219 L 256.753906 164.617188 L 257.964844 163.445312 C 258.414062 163.046875 258.859375 162.671875 259.246094 162.183594 C 259.386719 162.003906 259.515625 161.808594 259.632812 161.59375 C 264.574219 159.625 269.441406 159.1875 269.441406 159.1875 C 269.441406 159.1875 256.457031 153.164062 249.804688 152.757812 C 250.203125 152.09375 250.609375 151.433594 251.019531 150.777344 C 251.234375 150.4375 251.460938 150.097656 251.675781 149.757812 C 252.445312 148.550781 253.214844 147.351562 254.003906 146.152344 C 255.046875 144.628906 256.105469 143.140625 256.574219 141.121094 C 254.660156 141.945312 253.429688 143.371094 252.222656 144.800781 C 251 146.21875 249.828125 147.695312 248.710938 149.207031 C 248.683594 149.246094 248.65625 149.289062 248.625 149.328125 C 246.453125 152.347656 244.453125 155.519531 243.097656 159.238281 C 242.953125 159.730469 242.785156 160.199219 242.660156 160.714844 L 242.507812 161.523438 L 242.421875 162.273438 C 242.316406 163.261719 242.269531 164.207031 242.238281 165.15625 C 242.171875 167.050781 242.164062 168.917969 242.183594 170.785156 C 242.214844 174.519531 242.328125 178.238281 242.46875 181.953125 C 242.53125 183.542969 242.597656 185.136719 242.667969 186.726562 L 242.667969 207.191406 L 229.441406 219.882812 C 229.070312 220.136719 228.710938 220.402344 228.378906 220.714844 C 228.148438 220.933594 227.941406 221.179688 227.738281 221.433594 C 226.675781 221.191406 225.605469 220.949219 224.539062 220.703125 C 215.90625 218.675781 207.296875 216.496094 198.691406 214.308594 C 198.3125 214.210938 197.9375 214.113281 197.5625 214.015625 L 197.5625 178.6875 C 202.898438 176.03125 207.414062 171.835938 210.421875 166.503906 C 221.878906 146.226562 245.320312 113.5 275.496094 117.964844 C 299.902344 121.578125 310.023438 138.019531 314.203125 151.691406 C 314.105469 151.515625 314.011719 151.328125 313.90625 151.152344 C 312.539062 148.746094 310.984375 146.449219 309.257812 144.289062 C 307.53125 142.132812 305.683594 140.074219 303.660156 138.203125 C 301.640625 136.324219 299.492188 134.589844 297.238281 133.015625 C 295.007812 131.429688 292.625 129.96875 289.75 129.601562 C 291.621094 131.78125 293.800781 133.214844 295.90625 134.824219 C 297.992188 136.445312 299.960938 138.214844 301.800781 140.101562 C 303.628906 142 305.375 143.96875 306.945312 146.078125 C 308.515625 148.183594 309.957031 150.378906 311.25 152.660156 C 313.8125 157.234375 315.757812 162.15625 316.984375 167.257812 C 317 167.335938 317.019531 167.410156 317.035156 167.484375 C 317.175781 169.828125 317.125 171.226562 317.125 171.226562 C 317.125 171.226562 307.496094 152.40625 298.714844 149.6875 C 298.714844 149.6875 307.882812 164.902344 313.386719 181.832031 L 312.839844 180.683594 C 312.253906 179.605469 311.664062 178.53125 311.054688 177.472656 L 309.070312 174.386719 L 306.902344 171.425781 C 306.117188 170.492188 305.375 169.519531 304.503906 168.660156 C 303.574219 167.851562 302.585938 167.101562 301.402344 166.566406 C 301.8125 167.828125 302.410156 168.871094 303.066406 169.855469 C 303.671875 170.886719 304.402344 171.800781 305.09375 172.757812 L 307.007812 175.714844 L 308.742188 178.785156 C 309.253906 179.839844 309.789062 180.882812 310.320312 181.925781 L 311.730469 185.140625 L 312.957031 188.429688 L 314.035156 191.769531 C 315.335938 196.261719 316.167969 200.890625 316.457031 205.558594 L 316.542969 208.050781 C 314.09375 207.019531 304.273438 203.355469 292.769531 205.527344 C 292.769531 205.527344 309.277344 212.714844 315.398438 228.515625 C 317.1875 233.121094 318.089844 238.457031 317.445312 244.5625 C 317.324219 245.6875 317.171875 246.789062 317.003906 247.875 Z M 284.828125 79.398438 C 284.828125 79.398438 284.832031 79.402344 284.835938 79.402344 C 286.359375 80.160156 287.851562 80.914062 289.308594 81.664062 C 290.9375 82.507812 292.523438 83.34375 294.066406 84.167969 C 295.242188 84.800781 296.390625 85.425781 297.511719 86.042969 C 314.378906 95.359375 324.765625 103.035156 324.765625 103.035156 C 324.765625 103.035156 324.765625 125.796875 322.953125 156.105469 C 322.1875 152.253906 321.039062 147.972656 319.324219 143.605469 C 311.605469 123.964844 296.472656 111.917969 275.550781 108.773438 C 273.265625 108.429688 270.949219 108.257812 268.660156 108.257812 C 262.316406 108.257812 256.3125 109.53125 250.652344 111.765625 C 250.929688 111.546875 251.203125 111.324219 251.480469 111.109375 L 253.558594 109.515625 C 254.34375 106.507812 254.269531 103.347656 253.351562 100.386719 C 249.300781 87.296875 244.941406 73.015625 241.699219 62.113281 C 257.660156 66.949219 272.363281 73.222656 284.828125 79.398438 Z M 330.785156 94.890625 C 328.625 93.296875 289.058594 64.40625 238.339844 50.582031 C 237.664062 48.191406 237.179688 46.371094 236.925781 45.277344 C 236.515625 43.507812 235.578125 41.40625 234.25 39.109375 C 226.300781 25.367188 203.828125 4.226562 189.542969 0.273438 C 188.882812 0.0898438 188.207031 0 187.527344 0 C 186.851562 0 186.171875 0.0898438 185.515625 0.273438 C 171.230469 4.226562 148.757812 25.367188 140.808594 39.109375 C 139.476562 41.40625 138.542969 43.507812 138.132812 45.277344 C 137.878906 46.371094 137.390625 48.191406 136.71875 50.582031 C 85.996094 64.410156 46.433594 93.296875 44.269531 94.890625 C 41.6875 96.800781 40.164062 99.824219 40.164062 103.035156 C 40.164062 106.992188 40.320312 174.003906 49.878906 231.367188 C 49.917969 237.730469 50.050781 242.859375 50.328125 245.527344 C 51.820312 259.832031 56.824219 271.433594 61.753906 279.757812 C 63.527344 284.589844 65.445312 289.042969 67.519531 293.019531 C 95.671875 346.957031 181.96875 363.996094 185.628906 364.695312 C 186.257812 364.816406 186.894531 364.875 187.527344 364.875 C 188.164062 364.875 188.800781 364.816406 189.429688 364.695312 C 193.089844 363.996094 279.386719 346.957031 307.539062 293.015625 C 309.628906 289.011719 311.558594 284.523438 313.339844 279.648438 C 318.261719 271.339844 323.242188 259.777344 324.730469 245.527344 C 325.007812 242.859375 325.140625 237.730469 325.175781 231.367188 C 334.738281 174.003906 334.894531 106.992188 334.894531 103.035156 C 334.894531 99.824219 333.371094 96.800781 330.785156 94.890625 "/>
</g>
</svg>
